<?xml version="1.0" encoding="utf-8"?>
<!-- Generator: Avocode 2.5.3 - http://avocode.com -->
<svg height="16" width="16" xmlns:xlink="http://www.w3.org/1999/xlink" xmlns="http://www.w3.org/2000/svg" viewBox="0 0 16 16">
    <path fill="#cccccc" fill-rule="evenodd" d="M 15.3 12.81 C 14.81 11.83 13.14 11.22 10.82 10.37 C 10.56 10.27 10.28 10.17 10 10.06 C 10 10.06 10 8.46 10 8.46 C 10.29 8.21 10.92 7.56 10.99 6.5 C 11.14 6.37 11.26 6.15 11.33 5.86 C 11.44 5.39 11.39 4.83 11.06 4.5 C 11.07 4.45 11.1 4.4 11.12 4.35 C 11.37 3.7 11.85 2.5 11.66 1.56 C 11.43 0.41 9.79 0 8.46 0 C 7.42 0 6.17 0.26 5.77 0.97 C 5.37 1.02 5.07 1.18 4.86 1.47 C 4.28 2.25 4.7 3.63 4.92 4.38 C 4.94 4.42 4.95 4.45 4.96 4.49 C 4.61 4.82 4.56 5.38 4.67 5.86 C 4.74 6.15 4.86 6.37 5.01 6.5 C 5.08 7.56 5.71 8.21 6 8.46 C 6 8.46 6 10.06 6 10.06 C 5.72 10.17 5.44 10.27 5.18 10.37 C 2.86 11.22 1.19 11.83 0.7 12.81 C 0.01 14.2 0 15.61 0 15.67 C 0 15.85 0.15 16 0.33 16 C 0.33 16 15.67 16 15.67 16 C 15.85 16 16 15.85 16 15.67 C 16 15.61 15.99 14.2 15.3 12.81 Z" />
</svg>